<svg xmlns="http://www.w3.org/2000/svg" id="Layer_1" data-name="Layer 1" viewBox="0 0 512 512"><g><path fill="var(--white)" d="M256,497c-64.37,0-124.89-25.07-170.41-70.59C40.07,380.89,15,320.37,15,256s25.07-124.89,70.59-170.41C131.11,40.07,191.63,15,256,15s124.89,25.07,170.41,70.59c45.52,45.52,70.59,106.04,70.59,170.41s-25.07,124.89-70.59,170.41c-45.52,45.52-106.04,70.59-170.41,70.59Z"/><path fill="var(--secondary)" d="M256,30c30.52,0,60.12,5.97,87.96,17.75,26.91,11.38,51.08,27.68,71.85,48.45,20.77,20.77,37.06,44.94,48.45,71.85,11.78,27.84,17.75,57.44,17.75,87.96s-5.97,60.12-17.75,87.96c-11.38,26.91-27.68,51.08-48.45,71.85-20.77,20.77-44.94,37.06-71.85,48.45-27.84,11.78-57.44,17.75-87.96,17.75s-60.12-5.97-87.96-17.75c-26.91-11.38-51.08-27.68-71.85-48.45-20.77-20.77-37.06-44.94-48.45-71.85-11.78-27.84-17.75-57.44-17.75-87.96s5.97-60.12,17.75-87.96c11.38-26.91,27.68-51.08,48.45-71.85s44.94-37.06,71.85-48.45c27.84-11.78,57.44-17.75,87.96-17.75m0-30C114.62,0,0,114.62,0,256s114.62,256,256,256,256-114.62,256-256S397.38,0,256,0h0Z"/></g><ellipse cx="255.72" cy="396.25" fill="var(--secondary)" rx="16.28" ry="15.76"/><g><path fill="var(--white)" d="M257,333c-1-45,1.1-70.1,6-83,6.22-16.36,35.33-34.7,41.5-39.5,13.5-10.5,26.5-27.5,29.5-43.5,3.69-19.66-10.52-46.73-27-58-23.2-15.86-65-19-103,13"/><path fill="var(--secondary)" d="M257.11,333c-8.37,.19-15.27-6.52-15.34-14.89-.28-37.27,1.96-59.64,7.21-73.44,6.02-15.84,23.91-30.1,42.34-43.15,1.67-1.19,3.25-2.3,3.97-2.86,12.07-9.39,21.93-23.54,23.97-34.42,2.36-12.59-8.1-34.22-20.72-42.85-16.69-11.41-45.91-13.99-74.4,4.34-6.32,4.06-14.68,2.75-19.52-2.99h0c-5.85-6.95-4.21-17.42,3.42-22.33,16.31-10.49,34.02-16.59,52-17.81,20.48-1.39,40.16,3.59,55.43,14.03,20.12,13.75,38.29,46.43,33.28,73.15-4.1,21.86-20.79,41.49-35.03,52.58-1.25,.97-2.93,2.16-5.05,3.67-6.93,4.91-28.03,19.84-31.63,29.32-3.74,9.84-5.47,30.37-5.25,62.55,.06,8.2-6.47,14.93-14.67,15.12h0Z"/></g></svg>