<svg xmlns="http://www.w3.org/2000/svg" id="Layer_1" data-name="Layer 1" viewBox="0 0 512 512"><g><path fill="var(--white)" d="M256,497c-64.37,0-124.89-25.07-170.41-70.59C40.07,380.89,15,320.37,15,256s25.07-124.89,70.59-170.41S191.63,15,256,15s124.89,25.07,170.41,70.59c45.52,45.52,70.59,106.04,70.59,170.41s-25.07,124.89-70.59,170.41c-45.52,45.52-106.04,70.59-170.41,70.59Z"/><path fill="var(--red)" d="M256,30c30.52,0,60.12,5.97,87.96,17.75,26.91,11.38,51.08,27.68,71.85,48.45,20.77,20.77,37.06,44.94,48.45,71.85,11.78,27.84,17.75,57.44,17.75,87.96s-5.97,60.12-17.75,87.96c-11.38,26.91-27.68,51.08-48.45,71.85-20.77,20.77-44.94,37.06-71.85,48.45-27.84,11.78-57.44,17.75-87.96,17.75s-60.12-5.97-87.96-17.75c-26.91-11.38-51.08-27.68-71.85-48.45-20.77-20.77-37.06-44.94-48.45-71.85-11.78-27.84-17.75-57.44-17.75-87.96s5.97-60.12,17.75-87.96c11.38-26.91,27.68-51.08,48.45-71.85s44.94-37.06,71.85-48.45c27.84-11.78,57.44-17.75,87.96-17.75m0-30C114.62,0,0,114.62,0,256s114.62,256,256,256,256-114.62,256-256S397.38,0,256,0h0Z"/></g><ellipse cx="255.61" cy="396.25" fill="var(--red)" rx="16.28" ry="15.76"/><rect width="32" height="249" x="239.89" y="104" fill="var(--red)" rx="16" ry="16"/></svg>