<svg xmlns="http://www.w3.org/2000/svg" xmlns:xlink="http://www.w3.org/1999/xlink" id="Layer_1" x="0" y="0" version="1.1" viewBox="0 0 1062.2 151.9" style="enable-background:new 0 0 1062.2 151.9" xml:space="preserve"><style type="text/css">.st0{fill:#fff}.st1{fill:none}.st2{fill-opacity:0;stroke:#333;stroke-width:8.64;stroke-miterlimit:17.28}.st2,.st3,.st4{fill:#333}.st4{fill-opacity:0}</style><rect width="1062.2" height="151.9" class="st0"/><rect width="1920" height="1080" x="-203.2" y="-463.8" class="st1"/><g><g><g transform="translate(48.6199951171875,108.90999984741211)"><rect width="1048.7" height="139" x="-41.8" y="-102.3" class="st2"/></g><g><g><g transform="translate(48.6199951171875,108.90999984741211) translate(0,0)"><rect width="406.3" height="139" x="-41.8" y="-102.3" class="st3"/></g><g><g><g><path d="M-6.8,9.5v-60.6L41.8,9.5h14.9v-94.3H38.3V-23l-49.2-62h-14.3V9.5H-6.8z M117.1-85.7 c-14.6,0-25.8,6.6-33.2,14.5c-7.3,7.8-13.3,19.3-13.3,33.4c0,13.8,5.7,25.3,12.7,33.1c7.3,8.2,18.4,14.8,33.3,14.8 c14.5,0,25.8-6.5,33.2-14.4c7.2-7.7,13-19.1,13-33.2c0-13.6-5.8-25.2-12.7-33C143-78.7,131.9-85.7,117.1-85.7z M89.3-37.8 c0-3.9,0.6-7.7,1.8-11.5c3.5-10.8,11.7-20,25.7-20c4.3,0,8.1,0.9,11.5,2.6c9.4,4.8,16,15.1,16,28.9c0,3.9-0.6,7.7-1.8,11.5 C139.2-15.5,130.9-6,116.8-6c-4.3,0-8.2-0.9-11.6-2.7C95.8-13.6,89.3-23.8,89.3-37.8z M177,9.5h34.3c7.1,0,13.5-1.1,19.2-3.4 c16.5-6.5,27.3-21.2,27.3-44c0-6.5-1-12.6-2.9-18.3C249.1-73.4,234.5-85,211.3-85H177V9.5z M239.4-37.9 c0,18.3-9.8,31.3-28.1,31.3h-16v-62.3h16C229.7-68.9,239.4-56.3,239.4-37.9z M337.9-6.6h-47.3v-24.6h39.8v-14.9h-39.8v-22.8 h46.1V-85h-64.4V9.5h65.6V-6.6z" class="st0" transform="translate(48.6199951171875,108.90999984741211) translate(0,0) translate(5,5) scale(1)"/></g></g></g></g><g><g transform="translate(48.6199951171875,108.90999984741211) translate(0,0) translate(94.05001068115234,0)"><rect width="642.4" height="139" x="270.5" y="-102.3" class="st4"/></g><g><g><g><path d="M370.8,9.5h9.3V-85h-9.5l-37.2,64.7L296.6-85h-9.6V9.5h9.3v-77.6l34.5,60h5.4l34.5-60V9.5z M397.5-37.8 c0,13.7,5.4,25.3,12.3,33.1c7,8,17.8,14.8,32.1,14.8c14,0,24.6-6.7,31.6-14.4c7-7.8,12.7-19.4,12.7-33.4 c0-13.5-5.4-25-12.1-32.9c-7-8.1-17.7-15.2-32-15.2c-14,0-24.6,6.7-31.7,14.5C403.3-63.3,397.5-51.7,397.5-37.8z M406.8-37.8 c0-4.9,0.8-9.7,2.5-14.4c4.6-13.1,15.1-25,32.5-25c5.2,0,9.8,1.1,14.1,3.3c11.8,6,20.9,18.7,20.9,36.1 c0,11.1-4.2,20.5-9.5,27C462-4,453.4,1.8,441.8,1.8c-5.2,0-10-1.1-14.2-3.2C415.8-7.5,406.8-20.3,406.8-37.8z M513.1,9.5 v-77.2l61.6,77.2h8.1v-94.3h-9.3v78.5L511-85h-7.2V9.5H513.1z M606.5,9.5h9.3V-85h-9.3V9.5z M706.6-76.8V-85h-76.7v8.3h33.7 V9.5h9.3v-86.3H706.6z M710.1-37.8c0,13.7,5.4,25.3,12.2,33.1c7,8,17.8,14.8,32.1,14.8c13.9,0,24.6-6.7,31.6-14.4 c7-7.8,12.7-19.4,12.7-33.4c0-13.5-5.5-25-12.2-32.9c-6.9-8.1-17.7-15.2-32-15.2c-14,0-24.6,6.7-31.7,14.5 C715.8-63.3,710.1-51.7,710.1-37.8z M719.4-37.8c0-4.9,0.8-9.7,2.5-14.4c4.6-13.1,15.2-25,32.6-25c5.1,0,9.8,1.1,14.1,3.3 c11.8,6,20.9,18.7,20.9,36.1c0,11.1-4.1,20.5-9.5,27c-5.4,6.7-14,12.5-25.5,12.5c-5.2,0-10-1.1-14.3-3.2 C728.3-7.5,719.4-20.3,719.4-37.8z M816.3,9.5h9.3v-34.9h28l22.2,34.9h10.5L863.1-27c3.2-0.6,6.1-1.8,8.6-3.5 c7-4.7,12.4-13.3,12.4-24.8c0-3.7-0.7-7.3-2.1-10.8c-3.8-9.8-12.5-18.9-25.9-18.9h-40V9.5z M825.6-33.6v-43.2h30.1 c2.6,0,5.1,0.6,7.4,1.8c6.5,3.2,11.8,10.2,11.8,19.7c0,2.8-0.4,5.5-1.3,8.1c-2.4,7-7.8,13.6-17,13.6H825.6z" class="st3" transform="translate(48.6199951171875,108.90999984741211) translate(0,0) translate(94.05001068115234,0) translate(5,5) scale(1)"/></g></g></g></g></g></g></g></svg>